#!OML:ASF H:\GeneralSubjects\Female5\Project 1\Capture day 1\Session 1\Female5.ASF
:FULLY-SPECIFIED
:DEGREES
412
root -13.8736 16.2513 3.19533 220.43 -100.859 -212.13
lowerback 3.72264 2.92508 -0.52918
upperback -11.789 3.97169 3.65363
thorax -15.4707 2.07289 3.76044
lowerneck -16.2205 -7.59276 -7.05672
upperneck 26.3912 -9.06732 -0.590402
head 11.6144 -5.02713 -0.423608
rclavicle 1.15295e-014 1.82882e-014
rhumerus 19.5678 0.930754 -58.0459
rradius 52.6618
rwrist 26.3871
rhand -37.0516 -33.6582
rfingers 7.12502
rthumb -10.1244 -63.3946
lclavicle 1.15295e-014 1.82882e-014
lhumerus -42.3211 -3.32581 78.7649
lradius 49.0097
lwrist -6.95644
lhand -29.775 30.0645
lfingers 7.12502
lthumb -3.10015 -299.978
rfemur 13.5896 4.61128 38.6383
rtibia -0.791314
rfoot -26.2837 -22.8686
rtoes -6.48911
lfemur -25.0015 -23.2533 -18.3974
ltibia 22.6796
lfoot -6.19797 -3.36879
ltoes -6.80882
413
root -13.8732 16.2412 3.20895 219.016 -100.885 -210.635
lowerback 3.85593 2.96 -0.744279
upperback -11.7562 4.00668 3.6871
thorax -15.5431 2.12066 3.90754
lowerneck -16.5202 -7.46118 -6.9593
upperneck 26.5967 -8.7719 -0.972356
head 11.7186 -4.93161 -0.550339
rclavicle 2.88238e-014 1.07344e-014
rhumerus 16.6724 1.69121 -59.0788
rradius 54.6587
rwrist 26.6157
rhand -36.9323 -34.3329
rfingers 7.12502
rthumb -10.0093 -64.0749
lclavicle 2.88238e-014 1.07344e-014
lhumerus -43.3381 -2.49561 78.1522
lradius 48.446
lwrist -7.22184
lhand -29.672 29.6502
lfingers 7.12502
lthumb -3.00071 -300.391
rfemur 13.5284 4.81882 38.4931
rtibia -0.704548
rfoot -26.5921 -23.3289
rtoes -5.82262
lfemur -25.0844 -23.1574 -18.6995
ltibia 22.6862
lfoot -5.8293 -3.38466
ltoes -6.98309
414
root -13.8707 16.2323 3.22715 217.421 -100.702 -208.993
lowerback 3.98942 3.03125 -0.987879
upperback -11.6792 4.07915 3.62999
thorax -15.5572 2.18222 3.9602
lowerneck -16.7654 -7.34379 -6.77942
upperneck 26.6866 -8.5675 -1.19237
head 11.7745 -4.8473 -0.639431
rclavicle 1.21259e-014 1.66979e-014
rhumerus 13.8504 2.1355 -60.1248
rradius 56.0981
rwrist 26.9034
rhand -37.4485 -33.6525
rfingers 7.12502
rthumb -10.5073 -63.3699
lclavicle 1.21259e-014 1.66979e-014
lhumerus -44.2223 -1.63813 77.41
lradius 47.5905
lwrist -7.87008
lhand -29.7495 30.0135
lfingers 7.12502
lthumb -3.07554 -300.029
rfemur 13.6174 5.47988 38.3259
rtibia -0.794963
rfoot -27.7819 -23.5608
rtoes -5.53416
lfemur -25.0494 -23.0758 -19.2174
ltibia 22.6778
lfoot -5.61071 -3.26833
ltoes -7.04845
415
root -13.8613 16.2229 3.24651 216.595 -100.487 -208.11
lowerback 4.17468 3.09805 -1.04774
upperback -11.6133 4.16914 3.60519
thorax -15.6073 2.23156 3.94168
lowerneck -16.9099 -7.19862 -6.77348
upperneck 26.6415 -8.34179 -1.18541
head 11.7791 -4.74045 -0.606322
rclavicle -2.11706e-014 7.95139e-015
rhumerus 11.1845 2.98697 -60.8597
rradius 57.1387
rwrist 26.7056
rhand -37.8158 -33.2934
rfingers 7.12502
rthumb -10.8616 -62.9925
lclavicle -2.11706e-014 7.95139e-015
lhumerus -45.167 -0.675626 76.6217
lradius 46.7435
lwrist -8.53267
lhand -29.817 30.2209
lfingers 7.12502
lthumb -3.14078 -299.822
rfemur 13.6338 6.0032 38.1962
rtibia -0.839256
rfoot -28.603 -23.8388
rtoes -4.35296
lfemur -25.1163 -22.9397 -19.5845
ltibia 22.7465
lfoot -5.49103 -3.13598
ltoes -7.03767
416
root -13.8498 16.2101 3.26786 216.896 -100.284 -208.336
lowerback 4.28528 3.10596 -0.924358
upperback -11.5406 4.20538 3.67246
thorax -15.5876 2.23886 3.9373
lowerneck -17.0935 -6.94605 -6.6485
upperneck 26.6262 -7.96375 -1.28877
head 11.7871 -4.56862 -0.610521
rclavicle 2.79292e-014 2.78299e-014
rhumerus 8.64034 4.31081 -61.443
rradius 57.9584
rwrist 26.1174
rhand -37.9257 -33.4141
rfingers 7.12502
rthumb -10.9676 -63.1076
lclavicle 2.79292e-014 2.78299e-014
lhumerus -46.2405 0.45405 75.7245
lradius 45.8495
lwrist -9.06056
lhand -29.8326 29.6456
lfingers 7.12502
lthumb -3.15578 -300.398
rfemur 13.5165 5.99408 38.1098
rtibia -0.683515
rfoot -27.6342 -24.8524
rtoes -5.77327
lfemur -25.2544 -22.7141 -19.722
ltibia 22.8009
lfoot -5.39685 -3.21162
ltoes -6.95515
417
root -13.8392 16.1958 3.29455 217.264 -99.9211 -208.655
lowerback 4.43085 3.13205 -0.857655
upperback -11.4932 4.25616 3.70514
thorax -15.6254 2.25725 3.92193
lowerneck -17.2899 -6.68827 -6.22001
upperneck 26.7472 -7.58647 -1.70593
head 11.8218 -4.41182 -0.783006
rclavicle -3.71727e-014 -2.66371e-014
rhumerus 5.95138 5.6106 -62.0461
rradius 58.5211
rwrist 25.8747
rhand -37.8918 -33.3653
rfingers 7.12502
rthumb -10.9349 -63.0606
lclavicle -3.71727e-014 -2.66371e-014
lhumerus -47.3884 1.67915 74.7047
lradius 44.8514
lwrist -9.54362
lhand -29.7267 29.2538
lfingers 7.12502
lthumb -3.05349 -300.788
rfemur 13.743 6.52247 38.1726
rtibia -1.02618
rfoot -26.5467 -26.6497
rtoes -12.3641
lfemur -25.2651 -22.5637 -19.968
ltibia 22.766
lfoot -5.53702 -3.23266
ltoes -7.02709
418
root -13.8229 16.1867 3.3235 217.141 -99.3758 -208.48
lowerback 4.69381 3.22237 -0.937437
upperback -11.4955 4.3712 3.65163
thorax -15.8131 2.31796 3.8749
lowerneck -17.4391 -6.45405 -5.8262
upperneck 26.9785 -7.28401 -1.98816
head 11.9025 -4.27784 -0.914957
rclavicle -1.61016e-014 3.18055e-014
rhumerus 3.03236 6.69375 -62.5644
rradius 58.8073
rwrist 26.152
rhand -37.7359 -32.9915
rfingers 7.12502
rthumb -10.7845 -62.6947
lclavicle -1.61016e-014 3.18055e-014
lhumerus -48.6456 2.88305 73.6554
lradius 43.8792
lwrist -9.9374
lhand -29.7666 29.1525
lfingers 7.12502
lthumb -3.09208 -300.89
rfemur 13.6466 6.34955 37.6382
rtibia -0.9754
rfoot -28.3728 -25.0153
rtoes -8.21914
lfemur -25.1809 -22.4824 -20.3867
ltibia 22.6219
lfoot -5.83175 -3.17024
ltoes -7.05546
